HIERARCHY
ROOT root
{
	OFFSET	0	13.1	24.9
	CHANNELS 6  Xposition Yposition Zposition Xrotation Yrotation Zrotation
	JOINT spine_1
	{
		OFFSET	0	9.99999	0
		CHANNELS 3  Xrotation Yrotation Zrotation
		JOINT spine_2
		{
			OFFSET	0	112	-10
			CHANNELS 3  Xrotation Yrotation Zrotation
			JOINT spine_3
			{
				OFFSET	0	206.5	19.3
				CHANNELS 3  Xrotation Yrotation Zrotation
				JOINT spine_4
				{
					OFFSET	0	110.4	14.6
					CHANNELS 3  Xrotation Yrotation Zrotation
					JOINT neck_1
					{
						OFFSET	0	71.8	-50.3
						CHANNELS 3  Xrotation Yrotation Zrotation
						JOINT neck_2
						{
							OFFSET	0	86.2	-25.8
							CHANNELS 3  Xrotation Yrotation Zrotation
							JOINT head_ee
							{
								OFFSET	0	179.8	-8.7
								CHANNELS 3  Xrotation Yrotation Zrotation
								End Site
								{
									OFFSET	1	0	0
								}
							}
						}
					}
					JOINT left_clavicle
					{
						OFFSET	-43.2	22.4	-70.8
						CHANNELS 3  Xrotation Yrotation Zrotation
						JOINT left_shoulder
						{
							OFFSET	-93.9	-5.79999	48.7
							CHANNELS 3  Xrotation Yrotation Zrotation
							JOINT left_elbow
							{
								OFFSET	-291.4	-30.8	15.2
								CHANNELS 3  Xrotation Yrotation Zrotation
								JOINT left_lowarm_twist
								{
									OFFSET	-110.7	-3.89999	13.6
									CHANNELS 3  Xrotation Yrotation Zrotation
									JOINT left_hand
									{
										OFFSET	-110.7	-3.89999	13.6
										CHANNELS 3  Xrotation Yrotation Zrotation
										JOINT left_ee
										{
											OFFSET	-80.8	-5.10001	12.1
											CHANNELS 3  Xrotation Yrotation Zrotation
											End Site
											{
												OFFSET	1	0	0
											}
										}
									}
								}
							}
						}
					}
					JOINT right_clavicle
					{
						OFFSET	43.2	22.4	-70.8
						CHANNELS 3  Xrotation Yrotation Zrotation
						JOINT right_shoulder
						{
							OFFSET	93.9	-5.79999	48.7
							CHANNELS 3  Xrotation Yrotation Zrotation
							JOINT right_elbow
							{
								OFFSET	291.4	-30.8	15.2
								CHANNELS 3  Xrotation Yrotation Zrotation
								JOINT right_lowarm_twist
								{
									OFFSET	110.7	-3.89999	13.6
									CHANNELS 3  Xrotation Yrotation Zrotation
									JOINT right_hand
									{
										OFFSET	110.7	-3.89999	13.6
										CHANNELS 3  Xrotation Yrotation Zrotation
										JOINT right_ee
										{
											OFFSET	80.8	-5.10001	12.1
											CHANNELS 3  Xrotation Yrotation Zrotation
											End Site
											{
												OFFSET	1	0	0
											}
										}
									}
								}
							}
						}
					}
				}
			}
		}
	}
	JOINT left_hip
	{
		OFFSET	-82.8	-127.5	0.300001
		CHANNELS 3  Xrotation Yrotation Zrotation
		JOINT left_knee
		{
			OFFSET	-28.2	-396.7	2.2
			CHANNELS 3  Xrotation Yrotation Zrotation
			JOINT left_ankle
			{
				OFFSET	-11.7	-411.3	35.4
				CHANNELS 3  Xrotation Yrotation Zrotation
				JOINT left_toes
				{
					OFFSET	0	-60	-88.6
					CHANNELS 3  Xrotation Yrotation Zrotation
					JOINT left_foot_ee
					{
						OFFSET	-22.5	-16.5	-42.2
						CHANNELS 3  Xrotation Yrotation Zrotation
						End Site
						{
							OFFSET	1	0	0
						}
					}
				}
			}
		}
	}
	JOINT right_hip
	{
		OFFSET	82.8	-127.5	0.300001
		CHANNELS 3  Xrotation Yrotation Zrotation
		JOINT right_knee
		{
			OFFSET	28.2	-396.7	2.2
			CHANNELS 3  Xrotation Yrotation Zrotation
			JOINT right_ankle
			{
				OFFSET	11.7	-411.3	35.4
				CHANNELS 3  Xrotation Yrotation Zrotation
				JOINT right_toes
				{
					OFFSET	0	-60	-88.6
					CHANNELS 3  Xrotation Yrotation Zrotation
					JOINT right_foot_ee
					{
						OFFSET	22.5	-16.5	-42.2
						CHANNELS 3  Xrotation Yrotation Zrotation
						End Site
						{
							OFFSET	1	0	0
						}
					}
				}
			}
		}
	}
}
MOTION
Frames: 16
Frame Time: 0.02
1899.17 724.275 -1254.13 2.14377 53.615 0.688299 -3.41486 -0.469129 -0.874341 -3.41453 -0.412544 -0.902418 -3.40722 -0.155733 -0.979943 -3.40842 -0.308535 -0.943055 3.75655 10.7643 0.102131 4.13561 18.584 0.730202 -0.0 0.0 -0.0 9.8886 3.73202 19.207 0.597464 -26.8552 45.1589 2.28287 -48.5076 1.02865 -9.39526 -0.424161 1.12243 1.01897 -5.18182 4.67797 -0.0 0.0 -0.0 11.2743 7.95814 -22.6375 -33.7966 41.0385 -47.4431 0.374505 10.5102 -0.0344458 -1.19567 0.0436601 -0.146446 -2.85659 -6.21461 16.2954 0.0 0.0 0.0 -8.24394 -5.9066 2.96231 -22.3474 0.260373 3.3978 40.1886 11.3325 -4.90432 11.9376 -0.0 -0.0 -0.0 0.0 -0.0 34.9961 26.6609 -10.5424 -4.74562 -0.166095 -0.709165 -20.8833 3.23412 -3.20957 4.02239 -0.0 -0.0 0.0 0.0 0.0 
1867.08 724.721 -1270.36 2.89639 54.5876 -1.13776 -3.55032 -0.454284 -0.466395 -3.5503 -0.423685 -0.494356 -3.54639 -0.274338 -0.590452 -3.54669 -0.364145 -0.539718 3.69567 10.3285 0.190403 4.03717 17.7592 0.817435 -0.0 0.0 -0.0 9.92288 4.8251 19.1948 -1.34463 -26.4108 45.3983 2.27087 -48.3578 1.01967 -11.5091 -0.544627 1.36453 1.20796 -4.37006 6.29721 -0.0 0.0 -0.0 11.0499 7.11954 -22.1312 -32.0625 41.796 -48.5154 0.38553 10.8124 -0.0364855 -1.28947 0.0472145 -0.157897 -2.84952 -6.85407 15.9152 0.0 0.0 0.0 -9.94542 -6.17906 4.22265 -21.0639 0.281476 3.20199 39.3644 11.1895 -4.8299 12.2521 -0.0 -0.0 -0.0 0.0 -0.0 33.1933 27.7788 -9.26525 -8.49461 -0.255435 -1.27745 -20.9477 5.52343 -3.24953 4.25675 -0.0 -0.0 0.0 0.0 0.0 
1840.94 722.108 -1288.27 5.77494 55.0122 -4.88211 -3.81122 -0.282708 -0.446538 -3.81114 -0.253721 -0.463622 -3.80885 -0.116633 -0.515475 -3.80917 -0.196578 -0.490587 3.78841 11.3145 1.26988 4.14846 18.534 2.07684 -0.0 0.0 -0.0 9.8661 5.76182 19.0086 -4.43811 -26.2516 45.4581 2.28789 -48.57 1.03241 -13.5094 -0.666797 1.58944 1.55376 -2.66488 9.35287 -0.0 0.0 -0.0 10.6427 8.07158 -21.2481 -31.3324 42.6244 -48.8973 0.394365 11.0541 -0.0381612 -0.609059 0.0218574 -0.0747101 -2.98067 -9.61026 15.3465 0.0 0.0 0.0 -12.0621 -7.31699 5.46193 -22.6487 0.254783 3.4437 38.694 12.7248 -4.78462 15.0837 -0.0 -0.0 -0.0 0.0 -0.0 32.9788 28.7018 -9.79539 -14.6673 -0.321035 -2.22184 -22.9793 0.515118 -3.50123 3.06854 -0.0 -0.0 0.0 0.0 0.0 
1815.74 723.276 -1302.58 7.39858 54.7953 -6.94043 -3.74139 -0.211847 -0.275194 -3.74137 -0.193906 -0.288117 -3.74031 -0.107713 -0.330164 -3.74042 -0.158504 -0.30901 5.06524 10.6431 0.197032 5.46127 18.0922 0.686602 -0.0 0.0 -0.0 9.93057 6.28701 19.0904 -6.83043 -25.1254 45.7872 2.17294 -47.1014 0.947201 -13.8687 -0.689572 1.62938 1.84164 -4.11875 10.7181 -0.0 0.0 -0.0 10.7996 7.55509 -21.5879 -30.0361 42.6591 -47.8694 0.400373 11.2183 -0.0393216 -0.882606 0.031933 -0.108189 -2.86863 -8.58077 15.1416 0.0 0.0 0.0 -13.3365 -7.36744 6.25627 -24.3865 0.217839 3.7078 40.6717 11.378 -4.94695 15.1748 -0.0 -0.0 -0.0 0.0 -0.0 29.901 29.2653 -8.6463 -17.0507 -0.319091 -2.5875 -22.3021 6.07622 -3.46871 2.26714 -0.0 -0.0 0.0 0.0 0.0 
1790.52 726.577 -1325.4 8.11543 54.4542 -7.66795 -3.66912 0.118445 -0.0972108 -3.66912 0.12439 -0.0894768 -3.66933 0.144055 -0.0522219 -3.66931 0.134 -0.0743174 5.71413 9.66893 0.999204 6.00699 15.6189 1.5263 -0.0 0.0 -0.0 8.95556 7.45371 17.1252 -7.63226 -24.4406 48.0015 1.97218 -44.3274 0.80344 -17.7149 -0.94892 2.04779 2.2752 -2.84581 14.2342 -0.0 0.0 -0.0 11.0635 9.38125 -22.1794 -29.6019 43.4197 -48.1838 0.39838 11.1638 -0.0389346 -1.64617 0.0609028 -0.201387 -2.61118 -9.27955 13.0633 0.0 0.0 0.0 -12.9254 -8.61013 6.45089 -27.1366 0.143047 4.12319 39.0459 19.9225 -4.93759 18.13 -0.0 -0.0 -0.0 0.0 -0.0 27.5528 29.4296 -9.98158 -17.9284 -0.314544 -2.72208 -16.1424 -0.884865 -2.44473 2.6177 -0.0 -0.0 0.0 0.0 0.0 
1756.0 729.835 -1344.17 9.38787 51.9358 -8.17196 -3.74192 0.335168 0.0387505 -3.74198 0.332023 0.0599998 -3.7417 0.30295 0.148528 -3.74158 0.322606 0.0988186 7.16188 10.9746 -1.14816 7.7379 19.5165 -1.12771 -0.0 0.0 -0.0 9.20106 8.03705 17.5445 -9.44572 -19.2619 49.0231 1.79272 -41.6031 0.681092 -17.6326 -0.943076 2.03902 2.03376 -3.60524 12.2514 -0.0 0.0 -0.0 11.0819 8.82294 -22.2188 -29.5535 44.4379 -48.5537 0.387442 10.8647 -0.0368449 -1.10885 0.040387 -0.135844 -2.68618 -9.20475 13.5989 0.0 0.0 0.0 -11.8075 -7.99306 6.86392 -31.5794 -0.0196624 4.78543 41.4933 24.9904 -5.30871 19.6181 -0.0 -0.0 -0.0 0.0 -0.0 25.7001 30.6864 -11.4795 -20.122 -0.294168 -3.05803 -9.92748 0.848559 -1.50063 1.25517 -0.0 -0.0 0.0 0.0 0.0 
1735.33 734.761 -1361.24 10.9486 52.1866 -9.84895 -4.08064 0.203121 0.391012 -4.08057 0.177829 0.403144 -4.07914 0.0582068 0.436761 -4.07938 0.126454 0.422087 6.78996 9.92212 0.363634 7.15226 16.4493 0.697019 -0.0 0.0 -0.0 9.43236 8.70162 17.9235 -12.6885 -20.3623 47.7169 1.55516 -37.6072 0.529556 -20.0345 -1.11875 2.29148 2.02628 -3.27144 12.3381 -0.0 0.0 -0.0 11.2007 8.53364 -22.4803 -27.3827 44.6646 -49.4565 0.447979 12.5123 -0.0491105 1.57841 -0.0529334 0.19464 -3.11178 -13.2888 14.217 0.0 0.0 0.0 -10.4866 -9.51855 5.99118 -34.3418 -0.146571 5.19024 41.5748 23.9274 -5.28142 20.9259 -0.0 -0.0 -0.0 0.0 -0.0 22.6939 31.208 -11.477 -20.9594 -0.283001 -3.18603 -4.54893 -3.51557 -0.674834 -3.06652 0.0 0.0 0.0 0.0 0.0 
1713.8 739.521 -1379.84 12.4412 52.2756 -10.9997 -4.22062 0.235627 0.480502 -4.22051 0.204575 0.494521 -4.21847 0.0570859 0.532111 -4.21884 0.140405 0.516418 4.81642 10.057 1.11812 5.11615 16.3188 1.75224 -0.0 0.0 -0.0 9.32083 9.51978 17.6405 -14.2439 -18.8921 48.0926 1.41215 -34.9723 0.444894 -20.199 -1.13117 2.3085 1.84316 -3.04345 11.1741 -0.0 0.0 -0.0 11.4252 8.32955 -22.9763 -24.6731 45.4568 -50.1833 0.372024 10.4421 -0.0339947 2.34921 -0.0768275 0.290195 -3.10408 -14.582 13.455 0.0 0.0 0.0 -8.74417 -10.4104 5.5791 -37.6102 -0.32177 5.6608 38.3108 26.4274 -5.04916 24.5804 -0.0 -0.0 -0.0 0.0 -0.0 18.9857 32.0523 -11.8088 -20.665 -0.28714 -3.14105 -0.424033 -5.63902 -0.0621896 -6.0003 0.0 0.0 0.0 0.0 0.0 
1695.98 740.958 -1394.97 14.0957 51.6615 -11.9655 -4.39003 0.213193 0.943586 -4.38955 0.152721 0.955238 -4.3861 -0.12519 0.959234 -4.38738 0.0278674 0.966967 2.92801 8.66767 1.67453 3.10288 13.701 2.46651 -0.0 0.0 -0.0 8.25299 9.87726 15.6476 -16.0985 -18.9106 48.8664 1.37331 -34.2256 0.42284 -20.7032 -1.16954 2.36045 1.55888 -0.000176704 10.4716 -0.0 0.0 -0.0 11.2391 9.26147 -22.569 -21.8493 47.0464 -50.9229 0.460626 12.8539 -0.0518873 2.8774 -0.092457 0.355852 -2.70038 -10.9553 12.7832 0.0 0.0 0.0 -7.82257 -10.9226 4.55551 -41.4493 -0.561533 6.19995 37.4312 26.3314 -4.95653 27.6394 -0.0 -0.0 -0.0 0.0 -0.0 17.0832 31.1787 -11.9907 -22.224 -0.262593 -3.37899 3.74974 -2.19296 0.546514 -8.14855 0.0 0.0 0.0 0.0 0.0 
1681.04 744.068 -1404.48 15.2415 52.0904 -13.6524 -4.4201 0.245335 1.24979 -4.41925 0.165317 1.26286 -4.41406 -0.201207 1.25764 -4.41626 -7.78468e-05 1.27363 3.50617 10.4581 -1.14727 3.92915 19.1545 -0.67095 -0.0 0.0 -0.0 8.5763 10.0205 16.2264 -17.732 -15.8727 48.6103 1.2449 -31.6602 0.352989 -19.7295 -1.09586 2.25983 1.1587 -2.02114 6.93732 -0.0 0.0 -0.0 11.2364 8.80893 -22.5612 -19.4673 48.7678 -50.2125 0.532958 14.7895 -0.06917 4.12403 -0.126939 0.511359 -2.79581 -19.6353 8.77834 0.0 0.0 0.0 -5.21914 -10.5381 3.85113 -45.1852 -0.829156 6.70838 38.6787 25.8138 -5.06544 26.6719 -0.0 -0.0 -0.0 0.0 -0.0 16.4288 31.9669 -12.1894 -25.3127 -0.194878 -3.84809 7.46762 -8.05499 1.07041 -7.01856 0.0 0.0 0.0 0.0 0.0 
1664.56 748.458 -1415.61 16.4313 51.8462 -14.1439 -4.68175 0.319164 1.35167 -4.68076 0.232515 1.36923 -4.67324 -0.173314 1.37798 -4.67589 0.0464657 1.38806 0.890385 8.24852 0.882901 1.03978 13.8846 1.72901 -0.0 0.0 -0.0 8.39538 10.9023 15.8296 -17.8247 -13.6001 49.4611 1.15788 -29.8368 0.308497 -21.2875 -1.21457 2.42022 0.510527 -2.57917 2.33902 -0.0 0.0 -0.0 11.3289 9.1328 -22.7682 -17.0142 49.9074 -49.7092 0.541392 15.013 -0.0713386 2.64453 -0.085641 0.326888 -3.4689 -22.2315 11.3495 0.0 0.0 0.0 -5.00828 -12.5086 2.97676 -46.4139 -0.924382 6.87172 38.1563 25.7252 -5.0103 28.596 -0.0 -0.0 -0.0 0.0 -0.0 14.6511 32.6243 -12.8344 -26.0673 -0.174496 -3.9621 14.501 -9.19437 2.02786 -11.6741 0.0 0.0 0.0 0.0 0.0 
1654.64 747.108 -1423.08 17.9867 52.4969 -15.1675 -4.63789 0.263471 1.28242 -4.63699 0.181341 1.29659 -4.63119 -0.200356 1.29379 -4.63353 0.00646934 1.30919 1.04498 8.09145 0.0592406 1.21296 14.271 0.801987 -0.0 0.0 -0.0 8.19789 9.84354 15.5496 -18.5448 -12.0117 50.585 1.12043 -29.0306 0.290091 -21.1742 -1.20579 2.40867 -0.0755943 0.041395 -0.487295 -0.0 0.0 -0.0 11.2024 9.63764 -22.4879 -16.1204 50.5818 -48.2659 0.596251 16.4554 -0.0862164 2.66783 -0.0863284 0.329785 -3.63284 -24.0314 11.2422 0.0 0.0 0.0 -3.84234 -12.7938 2.6615 -48.0574 -1.05723 7.087 35.5456 25.5512 -4.7358 30.3095 -0.0 -0.0 -0.0 0.0 -0.0 13.3453 32.7972 -13.5436 -27.2059 -0.140903 -4.13361 23.4951 -13.6503 3.17698 -14.0478 0.0 0.0 0.0 0.0 0.0 
1633.87 749.337 -1434.4 19.2203 53.092 -16.3159 -4.72529 0.342518 1.28693 -4.72441 0.259941 1.30611 -4.71665 -0.129801 1.32538 -4.71909 0.0811282 1.32925 0.572804 8.09983 -0.118159 0.738222 14.4809 0.656693 -0.0 0.0 -0.0 8.1076 9.58432 15.4025 -20.4234 -10.5054 51.7404 1.08588 -28.2755 0.273522 -21.1526 -1.20412 2.40646 -0.507548 1.88895 -2.57745 -0.0 0.0 -0.0 11.438 10.022 -23.0131 -15.1463 51.2619 -46.709 0.649774 17.8424 -0.101999 2.75878 -0.0889998 0.341095 -3.81753 -25.2919 11.5417 0.0 0.0 0.0 -2.37922 -13.3129 1.9092 -49.0224 -1.1381 7.21162 33.7579 24.8962 -4.52571 31.3505 -0.0 -0.0 -0.0 0.0 -0.0 11.911 33.0036 -13.8045 -28.4287 -0.101036 -4.31703 29.9464 -16.6628 3.94831 -15.598 0.0 0.0 0.0 0.0 0.0 
1612.38 753.093 -1440.76 20.2937 54.0307 -16.9712 -4.98695 0.295939 1.31365 -4.98601 0.211756 1.32981 -4.97919 -0.188913 1.33325 -4.98167 0.0239993 1.34635 0.0735651 8.01386 -0.422597 0.235415 14.626 0.370797 -0.0 0.0 -0.0 7.72851 9.29939 14.729 -21.3113 -9.92098 53.531 1.0545 -27.5803 0.258824 -20.8844 -1.18344 2.37903 -0.790237 3.2351 -3.8698 -0.0 0.0 -0.0 11.3075 10.3593 -22.7203 -15.646 51.3193 -44.2814 0.71308 19.4552 -0.122244 2.70722 -0.0874873 0.334683 -3.91689 -25.7686 11.8154 0.0 0.0 0.0 -0.976323 -13.1022 1.09319 -49.0007 -1.13625 7.20883 32.4724 24.4431 -4.37296 32.1153 -0.0 -0.0 -0.0 0.0 -0.0 10.8059 33.0003 -14.4325 -28.6929 -0.0919081 -4.35655 30.151 -20.9701 4.03824 -17.7955 0.0 0.0 0.0 0.0 0.0 
1590.76 753.904 -1453.58 20.7216 53.7101 -16.4324 -5.28692 0.330646 1.32454 -5.28598 0.2457 1.34289 -5.27814 -0.167384 1.35488 -5.2807 0.0486732 1.36431 -1.27895 7.92931 -0.558488 -1.14341 14.7066 0.364229 -0.0 0.0 -0.0 7.75269 10.1263 14.7253 -22.8394 -9.08352 53.5469 1.03464 -27.1358 0.249698 -21.2211 -1.20942 2.41345 -0.971972 3.69546 -4.8713 -0.0 0.0 -0.0 11.0609 9.86317 -22.1729 -16.1486 51.5891 -42.9494 0.910645 24.2801 -0.195895 2.43686 -0.0794629 0.30108 -4.12025 -26.9704 12.2082 0.0 0.0 0.0 4.26008 -13.8795 -0.902676 -48.1732 -1.06682 7.10202 32.645 27.0619 -4.46479 33.1048 -0.0 -0.0 -0.0 0.0 -0.0 9.01309 32.9191 -15.8923 -28.4721 -0.0995481 -4.32353 30.8616 -23.1179 4.16178 -18.9053 0.0 0.0 0.0 0.0 0.0 
1580.65 756.141 -1457.47 21.3182 53.2518 -16.6195 -5.32897 0.323481 1.10006 -5.32833 0.252831 1.11841 -5.3219 -0.0942721 1.14274 -5.32371 0.087374 1.14329 -0.819079 7.82293 -1.60215 -0.64455 15.3152 -0.815906 -0.0 0.0 -0.0 7.77157 10.2966 14.7491 -23.8942 -8.69923 55.6334 0.983881 -25.9834 0.227002 -20.6315 -1.16405 2.35308 -1.19476 5.5141 -5.5315 -0.0 0.0 -0.0 11.2314 9.88731 -22.5522 -15.1249 51.9932 -41.2645 0.883042 23.6259 -0.184689 2.85296 -0.0917473 0.352812 -4.00887 -26.189 12.076 0.0 0.0 0.0 8.50039 -14.7998 -1.97299 -49.2228 -1.15516 7.23734 31.2399 26.5122 -4.28936 33.5627 -0.0 -0.0 -0.0 0.0 -0.0 7.72799 32.9404 -15.6869 -28.2329 -0.107683 -4.28772 31.3265 -22.4279 4.19871 -19.9933 0.0 0.0 0.0 0.0 0.0 
